<svg xmlns="http://www.w3.org/2000/svg" width="37" height="37" viewBox="0 0 37 37">
  <defs>
    <style>
      .cls-1 {
        fill: #2e2c2d;
        fill-rule: evenodd;
      }
    </style>
  </defs>
  <path id="Day_Calendar" data-name="Day Calendar" class="cls-1" d="M446.643,361.964A2.643,2.643,0,0,0,444,364.607v27.75A2.643,2.643,0,0,0,446.643,395h31.714A2.643,2.643,0,0,0,481,392.357v-27.75a2.643,2.643,0,0,0-2.643-2.643h-2.643v1.322s-0.041,4-3.964,4c0,0-3.964-.041-3.964-3.964l-0.042-1.363H457.173v1.322s0.041,4-3.923,4c0,0-4.006.042-4.006-3.964v-1.363h-2.6ZM453.25,358a2.643,2.643,0,0,1,2.643,2.643v2.643a2.643,2.643,0,0,1-5.286,0v-2.643A2.643,2.643,0,0,1,453.25,358Zm18.5,0a2.643,2.643,0,0,1,2.643,2.643v2.643a2.643,2.643,0,0,1-5.286,0v-2.643A2.643,2.643,0,0,1,471.75,358Zm-25.107,13.214h31.714v21.143H446.643V371.214Zm10.877,5.274a3.978,3.978,0,0,1-1.277,1.441,8.775,8.775,0,0,1-1.659,1.142v2.371c0.749-.451,1.031-0.639,1.031-0.639a11.731,11.731,0,0,0,1.593-.873v7.127h2.608V376.488h-2.3Zm4.981,2.62h4.67a15.186,15.186,0,0,0-2.314,3.483,18.422,18.422,0,0,0-1.071,4.466h2.881a16.776,16.776,0,0,1,.554-3.365,9.1,9.1,0,0,1,1.041-2.717,12,12,0,0,1,2.154-2.027v-2.489H462.5v2.649Z" transform="translate(-444 -358)"/>
</svg>
