<svg xmlns="http://www.w3.org/2000/svg" width="16" height="16" viewBox="0 0 16 16">
  <defs>
    <style>
      .cls-1 {
        fill: #878787;
        fill-rule: evenodd;
      }
    </style>
  </defs>
  <path id="Facebook" class="cls-1" d="M1034,91h12a2,2,0,0,1,2,2v12a2,2,0,0,1-2,2h-12a2,2,0,0,1-2-2V93A2,2,0,0,1,1034,91Zm-0.06,8.958h1.02v6.074h2.26V99.958h1.59L1039.25,98h-2.13a1.568,1.568,0,0,1,.15-1.12,1.189,1.189,0,0,1,.83-0.276,2.129,2.129,0,0,1,1.06.425l0.46-1.727a6.248,6.248,0,0,0-1.89-.442,3.25,3.25,0,0,0-1.59.343,1.93,1.93,0,0,0-.86,1,3.5,3.5,0,0,0-.26,1.544V98h-1.05Z" transform="translate(-1032 -91)"/>
</svg>
