<svg xmlns="http://www.w3.org/2000/svg" width="19.56" height="14.969" viewBox="0 0 19.56 14.969">
  <defs>
    <style>
      .cls-1 {
        fill: #878787;
        fill-rule: evenodd;
      }
    </style>
  </defs>
  <path id="Twitter" class="cls-1" d="M1000.97,101.942a17.923,17.923,0,0,0,3.73.931,2.045,2.045,0,0,0,2.47-.991,0.491,0.491,0,0,0-.12-0.733s-4.18-.492-3.86-1.269c0,0-.02-0.439.55-0.339,0,0,.81-1.568.49-1.767,0,0-.5-0.439-0.1-0.479,0,0,1.18.159,1.55,0.259,0,0,.26-0.093.02-0.273a1.313,1.313,0,0,1-.55-0.663s0.14-.339.77-0.06c0,0,.36-0.383.18-0.583,0,0-.54-0.319-0.28-0.578,0,0,1.22-1.527,2.57.882,0,0,.34.459,0.38,0.02,0,0,1.65-4.716,3.83-5.094a1.145,1.145,0,0,0,.83-0.08,1.059,1.059,0,0,1,.81-0.04,0.318,0.318,0,0,0,.44.12s0.85-.339.59,0.219a4.065,4.065,0,0,1-1.11.926c-0.3.02-.24,0.424,0.01,0.464,0,0,3.59.258,3.59,2.93,0,0,.21.635,0.89-0.023a7.308,7.308,0,0,1,1.28-.684s0.28-.179.24,0.24a4.81,4.81,0,0,1-1.49,1.635s-0.46.578,0.2,0.459a4.036,4.036,0,0,0,.94-0.312s0.77-.379.41,0.3a9.926,9.926,0,0,1-1.99,1.062,0.312,0.312,0,0,0-.24.279s-0.22,7.277-9.35,7.277a10.822,10.822,0,0,1-7.56-3.514S1000.51,101.842,1000.97,101.942Z" transform="translate(-1000.78 -91)"/>
</svg>
